<svg width="24" height="24" viewBox="0 0 24 24" fill="none" xmlns="http://www.w3.org/2000/svg">
<rect width="24" height="24" fill="#F5F5F5"/>
<g clip-path="url(#clip0_0_1)">
<rect width="1440" height="4823" transform="translate(-1320 -48)" fill="white"/>
<path d="M-1320 -48H120V752H-1320V-48Z" fill="#4A2B33"/>
<path d="M-1320 -48H120V72H-1320V-48Z" fill="#4A2B33"/>
<g clip-path="url(#clip1_0_1)">
<path d="M23.1916 11.5957C23.1916 5.19161 18 0 11.5957 0C5.19161 0 0 5.19161 0 11.5957C0 17.3835 4.24039 22.1808 9.78394 23.0508V14.9477H6.8397V11.5957H9.78394V9.0411C9.78394 6.1349 11.5152 4.52961 14.1638 4.52961C15.4321 4.52961 16.7596 4.75609 16.7596 4.75609V7.60974H15.2974C13.8569 7.60974 13.4076 8.50365 13.4076 9.42158V11.5957H16.6236L16.1096 14.9477H13.4076V23.0508C18.9512 22.1808 23.1916 17.3835 23.1916 11.5957Z" fill="#C67A88"/>
</g>
</g>
<defs>
<clipPath id="clip0_0_1">
<rect width="1440" height="4823" fill="white" transform="translate(-1320 -48)"/>
</clipPath>
<clipPath id="clip1_0_1">
<rect width="24" height="24" fill="white"/>
</clipPath>
</defs>
</svg>
